<svg xmlns="http://www.w3.org/2000/svg" viewBox="0 0 100 100">
  <circle cx="50" cy="50" r="50" fill="#FFE0BD"/>
  <circle cx="50" cy="42" r="22" fill="#FFE0BD"/>
  <ellipse cx="50" cy="85" rx="30" ry="20" fill="#3b82f6"/>
  <circle cx="41" cy="39" r="3" fill="#333"/>
  <circle cx="59" cy="39" r="3" fill="#333"/>
  <path d="M44 48 Q50 54 56 48" stroke="#333" stroke-width="2" fill="none" stroke-linecap="round"/>
  <path d="M28 30 Q35 10 55 15 Q75 10 72 30" fill="#4a3728" stroke="none"/>
  <path d="M28 30 Q30 22 40 18 Q50 14 60 18 Q70 22 72 30 Q68 28 60 26 Q50 24 40 26 Q32 28 28 30Z" fill="#4a3728"/>
  <circle cx="42" cy="39" r="1" fill="white"/>
  <circle cx="60" cy="39" r="1" fill="white"/>
</svg>