<svg xmlns="http://www.w3.org/2000/svg" viewBox="0 0 100 100">
  <circle cx="50" cy="50" r="50" fill="#FFDFC4"/>
  <circle cx="50" cy="42" r="22" fill="#FFDFC4"/>
  <ellipse cx="50" cy="85" rx="30" ry="20" fill="#ec4899"/>
  <circle cx="41" cy="39" r="3" fill="#333"/>
  <circle cx="59" cy="39" r="3" fill="#333"/>
  <path d="M43 48 Q50 53 57 48" stroke="#333" stroke-width="2" fill="none" stroke-linecap="round"/>
  <path d="M25 35 Q30 8 50 10 Q70 8 75 35" fill="#2d1810"/>
  <path d="M22 36 Q24 42 30 38 Q28 34 22 36Z" fill="#2d1810"/>
  <path d="M78 36 Q76 42 70 38 Q72 34 78 36Z" fill="#2d1810"/>
  <path d="M30 35 L32 28 Q40 14 50 14 Q60 14 68 28 L70 35" fill="#2d1810"/>
  <circle cx="42" cy="39" r="1" fill="white"/>
  <circle cx="60" cy="39" r="1" fill="white"/>
  <ellipse cx="38" cy="44" rx="4" ry="2" fill="#FFB6C1" opacity="0.4"/>
  <ellipse cx="62" cy="44" rx="4" ry="2" fill="#FFB6C1" opacity="0.4"/>
</svg>