<svg xmlns="http://www.w3.org/2000/svg" viewBox="0 0 100 100">
  <circle cx="50" cy="50" r="50" fill="#F1C27D"/>
  <circle cx="50" cy="42" r="22" fill="#F1C27D"/>
  <ellipse cx="50" cy="85" rx="30" ry="20" fill="#f59e0b"/>
  <circle cx="41" cy="39" r="3" fill="#333"/>
  <circle cx="59" cy="39" r="3" fill="#333"/>
  <path d="M44 48 Q50 53 56 48" stroke="#333" stroke-width="2" fill="none" stroke-linecap="round"/>
  <path d="M26 32 Q32 10 50 12 Q68 10 74 32" fill="#d4a574" stroke="none"/>
  <rect x="30" y="8" width="4" height="22" rx="2" fill="#d4a574" transform="rotate(-15 32 19)"/>
  <rect x="42" y="5" width="4" height="22" rx="2" fill="#d4a574" transform="rotate(-5 44 16)"/>
  <rect x="54" y="5" width="4" height="22" rx="2" fill="#d4a574" transform="rotate(5 56 16)"/>
  <rect x="66" y="8" width="4" height="22" rx="2" fill="#d4a574" transform="rotate(15 68 19)"/>
  <circle cx="42" cy="39" r="1" fill="white"/>
  <circle cx="60" cy="39" r="1" fill="white"/>
  <rect x="36" y="35" width="12" height="1" rx="0.5" fill="#333" transform="rotate(-5 42 35.5)"/>
  <rect x="52" y="35" width="12" height="1" rx="0.5" fill="#333" transform="rotate(5 58 35.5)"/>
</svg>