<svg xmlns="http://www.w3.org/2000/svg" viewBox="0 0 100 100">
  <circle cx="50" cy="50" r="50" fill="#8D5524"/>
  <circle cx="50" cy="42" r="22" fill="#8D5524"/>
  <ellipse cx="50" cy="85" rx="30" ry="20" fill="#10b981"/>
  <circle cx="41" cy="39" r="3" fill="#1a1a1a"/>
  <circle cx="59" cy="39" r="3" fill="#1a1a1a"/>
  <path d="M43 48 Q50 54 57 48" stroke="#1a1a1a" stroke-width="2" fill="none" stroke-linecap="round"/>
  <path d="M28 30 Q30 8 50 8 Q70 8 72 30" fill="#1a1a1a"/>
  <path d="M28 30 Q30 34 50 34 Q70 34 72 30 Q70 28 50 28 Q30 28 28 30Z" fill="#1a1a1a"/>
  <circle cx="42" cy="39" r="1" fill="white"/>
  <circle cx="60" cy="39" r="1" fill="white"/>
  <circle cx="50" cy="49" r="1.5" fill="#7A4A1E"/>
  <ellipse cx="39" cy="44" rx="3" ry="1.5" fill="#A0673A" opacity="0.4"/>
  <ellipse cx="61" cy="44" rx="3" ry="1.5" fill="#A0673A" opacity="0.4"/>
</svg>