<svg xmlns="http://www.w3.org/2000/svg" viewBox="0 0 100 100">
  <circle cx="50" cy="50" r="50" fill="#FFE0BD"/>
  <circle cx="50" cy="42" r="22" fill="#FFE0BD"/>
  <ellipse cx="50" cy="85" rx="30" ry="20" fill="#6366f1"/>
  <circle cx="41" cy="39" r="3" fill="#333"/>
  <circle cx="59" cy="39" r="3" fill="#333"/>
  <path d="M43 48 Q50 53 57 48" stroke="#333" stroke-width="2" fill="none" stroke-linecap="round"/>
  <path d="M24 40 Q26 12 50 10 Q74 12 76 40" fill="#c2885c"/>
  <path d="M24 40 Q26 36 30 34 Q34 30 40 28 Q50 26 60 28 Q66 30 70 34 Q74 36 76 40" fill="#c2885c"/>
  <path d="M30 20 L26 14 Q28 16 30 20Z" fill="#c2885c"/>
  <path d="M70 20 L74 14 Q72 16 70 20Z" fill="#c2885c"/>
  <circle cx="42" cy="39" r="1" fill="white"/>
  <circle cx="60" cy="39" r="1" fill="white"/>
  <ellipse cx="38" cy="44" rx="4" ry="2" fill="#FFB6C1" opacity="0.4"/>
  <ellipse cx="62" cy="44" rx="4" ry="2" fill="#FFB6C1" opacity="0.4"/>
  <path d="M48 32 L50 28 L52 32" stroke="#c2885c" stroke-width="1" fill="none"/>
</svg>